<svg xmlns="http://www.w3.org/2000/svg" width="1600" height="940" viewBox="0 0 1600 940" role="img" aria-labelledby="title desc">
  <title id="title">FeelIT architecture</title>
  <desc id="desc">Architecture diagram for FeelIT showing frontend workspaces, shared API and domain services, haptic runtime, packaging flow, and preserved legacy evidence.</desc>
  <defs>
    <linearGradient id="bg" x1="0" y1="0" x2="1" y2="1">
      <stop offset="0%" stop-color="#0d1117"/>
      <stop offset="55%" stop-color="#101725"/>
      <stop offset="100%" stop-color="#161b22"/>
    </linearGradient>
    <linearGradient id="panel" x1="0" y1="0" x2="0" y2="1">
      <stop offset="0%" stop-color="#182233"/>
      <stop offset="100%" stop-color="#101722"/>
    </linearGradient>
    <linearGradient id="panelSoft" x1="0" y1="0" x2="0" y2="1">
      <stop offset="0%" stop-color="#131d2b"/>
      <stop offset="100%" stop-color="#0f1724"/>
    </linearGradient>
    <filter id="shadow" x="-20%" y="-20%" width="140%" height="140%">
      <feDropShadow dx="0" dy="14" stdDeviation="18" flood-color="#000000" flood-opacity="0.30"/>
    </filter>
    <marker id="arrowBlue" markerWidth="12" markerHeight="12" refX="10" refY="6" orient="auto">
      <path d="M0 0 L12 6 L0 12 Z" fill="#79c0ff"/>
    </marker>
    <marker id="arrowGreen" markerWidth="12" markerHeight="12" refX="10" refY="6" orient="auto">
      <path d="M0 0 L12 6 L0 12 Z" fill="#7ee787"/>
    </marker>
    <style>
      .title { font: 700 40px 'Segoe UI', sans-serif; fill: #e6edf3; }
      .subtitle { font: 400 18px 'Segoe UI', sans-serif; fill: #8b949e; }
      .lane { font: 700 14px 'Segoe UI', sans-serif; fill: #0d1117; letter-spacing: 1.8px; }
      .cardTitle { font: 700 22px 'Segoe UI', sans-serif; fill: #e6edf3; }
      .body { font: 400 16px 'Segoe UI', sans-serif; fill: #9fb0c3; }
      .small { font: 400 14px 'Segoe UI', sans-serif; fill: #8b949e; }
      .mono { font: 400 14px Consolas, monospace; fill: #d7e2ee; }
      .legend { font: 600 14px 'Segoe UI', sans-serif; fill: #c9d5e2; }
      .badge { font: 700 12px 'Segoe UI', sans-serif; fill: #0d1117; letter-spacing: 1px; }
      .iconStroke { stroke: #e6edf3; stroke-width: 2.2; stroke-linecap: round; stroke-linejoin: round; fill: none; }
      .iconFillBlue { fill: rgba(121,192,255,0.22); stroke: #79c0ff; stroke-width: 1.6; }
      .iconFillGreen { fill: rgba(126,231,135,0.18); stroke: #7ee787; stroke-width: 1.6; }
      .iconFillPurple { fill: rgba(194,151,255,0.18); stroke: #c297ff; stroke-width: 1.6; }
      .iconFillOrange { fill: rgba(255,166,87,0.18); stroke: #ffa657; stroke-width: 1.6; }
      .iconFillRed { fill: rgba(255,123,114,0.18); stroke: #ff7b72; stroke-width: 1.6; }
      .iconFillYellow { fill: rgba(242,204,96,0.18); stroke: #f2cc60; stroke-width: 1.6; }
    </style>
  </defs>

  <rect width="1600" height="940" fill="url(#bg)"/>
  <circle cx="1460" cy="150" r="240" fill="#58a6ff" opacity="0.06"/>
  <circle cx="180" cy="820" r="220" fill="#39d2c0" opacity="0.05"/>
  <rect x="42" y="42" width="1516" height="856" rx="28" fill="none" stroke="#30363d" stroke-width="2"/>

  <text x="78" y="102" class="title">FeelIT Architecture</text>
  <text x="78" y="136" class="subtitle">Three dedicated workspaces share one release-governed runtime, one tactile domain layer, and one haptic abstraction boundary.</text>

  <rect x="78" y="172" width="204" height="30" rx="15" fill="#79c0ff"/>
  <text x="101" y="192" class="lane">FRONTEND WORKSPACES</text>
  <rect x="580" y="172" width="214" height="30" rx="15" fill="#7ee787"/>
  <text x="604" y="192" class="lane">API AND DOMAIN CORE</text>
  <rect x="1082" y="172" width="232" height="30" rx="15" fill="#ffa657"/>
  <text x="1108" y="192" class="lane">RUNTIME AND DELIVERY</text>

  <rect x="78" y="224" width="430" height="548" rx="24" fill="url(#panel)" stroke="#30363d" filter="url(#shadow)"/>
  <rect x="580" y="224" width="430" height="548" rx="24" fill="url(#panel)" stroke="#30363d" filter="url(#shadow)"/>
  <rect x="1082" y="224" width="430" height="548" rx="24" fill="url(#panel)" stroke="#30363d" filter="url(#shadow)"/>

  <rect x="108" y="258" width="370" height="138" rx="18" fill="url(#panelSoft)" stroke="#58a6ff"/>
  <circle cx="152" cy="302" r="22" class="iconFillBlue"/>
  <path d="M140 304 L152 296 L164 304 L164 318 L152 326 L140 318 Z" class="iconStroke"/>
  <path d="M152 296 L152 310" class="iconStroke"/>
  <path d="M140 304 L152 312 L164 304" class="iconStroke"/>
  <text x="188" y="294" class="cardTitle">3D Object Explorer</text>
  <text x="188" y="319" class="mono">Route: /object-explorer</text>
  <text x="126" y="350" class="body">Stages real OBJ meshes, tactile material presets,</text>
  <text x="126" y="374" class="body">workspace scaling, and pointer-proxy traversal.</text>

  <rect x="108" y="426" width="370" height="138" rx="18" fill="url(#panelSoft)" stroke="#7ee787"/>
  <circle cx="152" cy="470" r="22" class="iconFillGreen"/>
  <circle cx="145" cy="462" r="3.2" fill="#e6edf3"/>
  <circle cx="159" cy="462" r="3.2" fill="#e6edf3"/>
  <circle cx="145" cy="470" r="3.2" fill="#e6edf3"/>
  <circle cx="159" cy="470" r="3.2" fill="#e6edf3"/>
  <circle cx="145" cy="478" r="3.2" fill="#e6edf3"/>
  <circle cx="159" cy="478" r="3.2" fill="#e6edf3"/>
  <text x="188" y="462" class="cardTitle">Braille Reader</text>
  <text x="188" y="487" class="mono">Route: /braille-reader</text>
  <text x="126" y="518" class="body">Translates text into tactile cells, paginates them,</text>
  <text x="126" y="542" class="body">and realizes the board as a bounded 3D surface.</text>

  <rect x="108" y="594" width="370" height="138" rx="18" fill="url(#panelSoft)" stroke="#c297ff"/>
  <circle cx="152" cy="638" r="22" class="iconFillPurple"/>
  <path d="M139 629 H154 L158 635 H166 V647 H139 Z" class="iconStroke"/>
  <path d="M145 641 H160" class="iconStroke"/>
  <text x="188" y="630" class="cardTitle">Haptic Desktop</text>
  <text x="188" y="655" class="mono">Route: /haptic-desktop</text>
  <text x="126" y="686" class="body">Builds a navigable 3D desktop with focusable objects,</text>
  <text x="126" y="710" class="body">labels, announcements, and activation prototypes.</text>

  <rect x="610" y="258" width="370" height="128" rx="18" fill="url(#panelSoft)" stroke="#79c0ff"/>
  <circle cx="654" cy="300" r="22" class="iconFillBlue"/>
  <rect x="643" y="289" width="22" height="22" rx="4" class="iconStroke"/>
  <path d="M648 296 H660" class="iconStroke"/>
  <path d="M648 302 H660" class="iconStroke"/>
  <path d="M648 308 H657" class="iconStroke"/>
  <text x="690" y="292" class="cardTitle">FastAPI Delivery</text>
  <text x="690" y="317" class="mono">app/main.py</text>
  <text x="628" y="347" class="body">Serves routes, startup lifecycle, redirects,</text>
  <text x="628" y="371" class="body">and static delivery for the three workspaces.</text>

  <rect x="610" y="410" width="370" height="156" rx="18" fill="url(#panelSoft)" stroke="#7ee787"/>
  <circle cx="654" cy="452" r="22" class="iconFillGreen"/>
  <circle cx="646" cy="452" r="3.2" fill="#e6edf3"/>
  <circle cx="662" cy="444" r="3.2" fill="#e6edf3"/>
  <circle cx="662" cy="460" r="3.2" fill="#e6edf3"/>
  <path d="M649 452 H659" class="iconStroke"/>
  <path d="M646 452 L662 444" class="iconStroke"/>
  <path d="M646 452 L662 460" class="iconStroke"/>
  <text x="690" y="444" class="cardTitle">API Contracts</text>
  <text x="690" y="469" class="mono">/api/health  /api/meta  /api/modes</text>
  <text x="690" y="494" class="mono">/api/materials  /api/demo-models</text>
  <text x="690" y="519" class="mono">/api/device/status  /api/braille/preview</text>
  <text x="628" y="548" class="body">Exposes runtime state, public modes, material profiles,</text>
  <text x="628" y="572" class="body">demo models, device status, and Braille translation.</text>

  <rect x="610" y="590" width="370" height="142" rx="18" fill="url(#panelSoft)" stroke="#f2cc60"/>
  <circle cx="654" cy="632" r="22" class="iconFillYellow"/>
  <path d="M643 624 H665" class="iconStroke"/>
  <path d="M643 632 H665" class="iconStroke"/>
  <path d="M643 640 H657" class="iconStroke"/>
  <text x="690" y="624" class="cardTitle">Domain Core</text>
  <text x="690" y="649" class="mono">braille.py  haptic_materials.py</text>
  <text x="690" y="674" class="mono">demo_assets.py  modes.py  version.py</text>
  <text x="628" y="704" class="body">Keeps translation, catalogs, versioning, and mode</text>
  <text x="628" y="728" class="body">definitions independent from UI or device vendors.</text>

  <rect x="1112" y="258" width="370" height="138" rx="18" fill="url(#panelSoft)" stroke="#ffa657"/>
  <circle cx="1156" cy="302" r="22" class="iconFillOrange"/>
  <rect x="1146" y="292" width="20" height="20" rx="4" class="iconStroke"/>
  <path d="M1142 298 H1146" class="iconStroke"/>
  <path d="M1142 306 H1146" class="iconStroke"/>
  <path d="M1166 298 H1170" class="iconStroke"/>
  <path d="M1166 306 H1170" class="iconStroke"/>
  <text x="1192" y="294" class="cardTitle">Haptic Runtime</text>
  <text x="1192" y="319" class="mono">base.py  null_backend.py  factory.py</text>
  <text x="1130" y="350" class="body">Maintains a device boundary and a safe visual-only</text>
  <text x="1130" y="374" class="body">fallback until a native haptic backend is attached.</text>

  <rect x="1112" y="426" width="370" height="138" rx="18" fill="url(#panelSoft)" stroke="#f2cc60"/>
  <circle cx="1156" cy="470" r="22" class="iconFillYellow"/>
  <path d="M1146 464 L1156 458 L1166 464 V476 L1156 482 L1146 476 Z" class="iconStroke"/>
  <path d="M1146 464 L1156 470 L1166 464" class="iconStroke"/>
  <path d="M1156 470 V482" class="iconStroke"/>
  <text x="1192" y="462" class="cardTitle">Packaging And Release</text>
  <text x="1192" y="487" class="mono">Build_PyInstaller.ps1  build.spec</text>
  <text x="1192" y="512" class="mono">installer/FeelIT_installer.iss</text>
  <text x="1130" y="542" class="body">Windows packaging metadata is generated from the</text>
  <text x="1130" y="566" class="body">canonical version source before each release build.</text>

  <rect x="1112" y="594" width="370" height="138" rx="18" fill="url(#panelSoft)" stroke="#ff7b72"/>
  <circle cx="1156" cy="638" r="22" class="iconFillRed"/>
  <path d="M1147 627 H1165 V649 H1147 Z" class="iconStroke"/>
  <path d="M1151 631 H1161" class="iconStroke"/>
  <path d="M1151 637 H1161" class="iconStroke"/>
  <path d="M1151 643 H1158" class="iconStroke"/>
  <text x="1192" y="630" class="cardTitle">Legacy Evidence</text>
  <text x="1192" y="655" class="mono">legacy/Registro Software</text>
  <text x="1130" y="686" class="body">Recovered manuals and source fragments verify the</text>
  <text x="1130" y="710" class="body">Braille lineage without overclaiming lost features.</text>

  <path d="M478 326 H580" fill="none" stroke="#79c0ff" stroke-width="5" marker-end="url(#arrowBlue)"/>
  <path d="M478 494 H580" fill="none" stroke="#79c0ff" stroke-width="5" marker-end="url(#arrowBlue)"/>
  <path d="M478 662 H580" fill="none" stroke="#79c0ff" stroke-width="5" marker-end="url(#arrowBlue)"/>
  <path d="M980 488 H1082" fill="none" stroke="#79c0ff" stroke-width="5" marker-end="url(#arrowBlue)"/>
  <path d="M980 664 H1082" fill="none" stroke="#7ee787" stroke-width="5" marker-end="url(#arrowGreen)"/>

  <rect x="78" y="802" width="1434" height="96" rx="22" fill="#111827" stroke="#30363d"/>
  <text x="110" y="838" class="cardTitle">Legend</text>
  <circle cx="134" cy="868" r="11" fill="#79c0ff"/>
  <text x="156" y="873" class="legend">Workspace pages and scene-facing UI</text>
  <circle cx="508" cy="868" r="11" fill="#7ee787"/>
  <text x="530" y="873" class="legend">API contracts and reusable domain logic</text>
  <circle cx="912" cy="868" r="11" fill="#ffa657"/>
  <text x="934" y="873" class="legend">Runtime boundary and delivery pipeline</text>
  <circle cx="1262" cy="868" r="11" fill="#ff7b72"/>
  <text x="1284" y="873" class="legend">Historical evidence and claim limits</text>
</svg>
